# File produced by Open Asset Import Library (http://www.assimp.sf.net)
# (assimp v3.1.6393133)

mtllib Demo%20Scene%20Viewer.mtl

# vertex positions
v -4900.000000 10000.000000 -5000.000000
v -4900.000000 10000.000000 5000.000000
v -4900.000488 0.000000 5000.000000
v -4900.000000 0.000000 -5000.000000
v -5100.000000 0.000000 -5000.000000
v -5100.000488 0.000000 5000.000000
v -5100.000000 10000.000000 5000.000000
v -5100.000000 10000.000000 -5000.000000
v 5000.000000 10000.000000 -4900.000000
v -5000.000000 10000.000000 -4900.000000
v -5000.000000 0.000000 -4900.000000
v 5000.000000 0.000000 -4900.000000
v 5000.000000 0.000000 -5100.000000
v -5000.000000 0.000000 -5100.000000
v -5000.000000 10000.000000 -5100.000000
v 5000.000000 10000.000000 -5100.000000
v 5000.000000 10000.000000 5100.000000
v -5000.000000 10000.000000 5100.000000
v -5000.000000 0.000000 5100.000000
v 5000.000000 0.000000 5100.000000
v 5000.000000 0.000000 4900.000000
v -5000.000000 0.000000 4900.000000
v -5000.000000 10000.000000 4900.000000
v 5000.000000 10000.000000 4900.000000
v 5000.000000 10099.999023 -5000.000000
v -5000.000000 10099.999023 -5000.000000
v -5000.000000 10100.000977 5000.000000
v 5000.000000 10100.000977 5000.000000
v 5000.000000 9900.001953 5000.000000
v -5000.000000 9900.001953 5000.000000
v -5000.000000 9899.999023 -5000.000000
v 5000.000000 9899.999023 -5000.000000
v 5000.000000 99.998535 -5000.000000
v -5000.000000 99.998535 -5000.000000
v -5000.000000 100.000977 5000.000000
v 5000.000000 100.000977 5000.000000
v 5000.000000 -99.999023 5000.000000
v -5000.000000 -99.999023 5000.000000
v -5000.000000 -100.000977 -5000.000000
v 5000.000000 -100.000977 -5000.000000

# UV coordinates
vt 0.167164 0.333830
vt 0.332836 0.333830
vt 0.332836 0.499503
vt 0.167164 0.499503
vt 0.499503 0.999503
vt 0.333830 0.999503
vt 0.333830 0.833830
vt 0.499503 0.833830
vt 0.499503 0.500497
vt 0.499503 0.666170
vt 0.333830 0.666170
vt 0.333830 0.500497
vt 0.167164 0.667164
vt 0.332836 0.667164
vt 0.332836 0.832836
vt 0.167164 0.832836
vt 0.832836 0.499503
vt 0.667164 0.499503
vt 0.667164 0.333830
vt 0.832836 0.333830
vt 0.666170 0.000497
vt 0.666170 0.166170
vt 0.500497 0.166170
vt 0.500497 0.000497
vt 0.333830 0.167164
vt 0.499503 0.167164
vt 0.499503 0.332836
vt 0.333830 0.332836
vt 0.332836 0.999503
vt 0.167164 0.999503
vt 0.167164 0.833830
vt 0.332836 0.833830
vt 0.666170 0.333830
vt 0.666170 0.499503
vt 0.500497 0.499503
vt 0.500497 0.333830
vt 0.667164 0.000497
vt 0.832836 0.000497
vt 0.832836 0.166170
vt 0.667164 0.166170
vt 0.666170 0.832836
vt 0.500497 0.832836
vt 0.500497 0.667164
vt 0.666170 0.667164
vt 0.166170 0.167164
vt 0.166170 0.332836
vt 0.000497 0.332836
vt 0.000497 0.167164
vt 0.333830 0.000497
vt 0.499503 0.000497
vt 0.499503 0.166170
vt 0.333830 0.166170
vt 0.999503 0.332836
vt 0.833830 0.332836
vt 0.833830 0.167164
vt 0.999503 0.167164
vt 0.832836 0.167164
vt 0.832836 0.332836
vt 0.667164 0.332836
vt 0.667164 0.167164
vt 0.000497 0.500497
vt 0.166170 0.500497
vt 0.166170 0.666170
vt 0.000497 0.666170
vt 0.832836 0.666170
vt 0.667164 0.666170
vt 0.667164 0.500497
vt 0.832836 0.500497
vt 0.332836 0.167164
vt 0.332836 0.332836
vt 0.167164 0.332836
vt 0.167164 0.167164
vt 0.333830 0.333830
vt 0.499503 0.333830
vt 0.499503 0.499503
vt 0.333830 0.499503
vt 0.166170 0.999503
vt 0.000497 0.999503
vt 0.000497 0.833830
vt 0.166170 0.833830
vt 0.166170 0.667164
vt 0.166170 0.832836
vt 0.000497 0.832836
vt 0.000497 0.667164
vt 0.500497 0.500497
vt 0.666170 0.500497
vt 0.666170 0.666170
vt 0.500497 0.666170
vt 0.999503 0.166170
vt 0.833830 0.166170
vt 0.833830 0.000497
vt 0.999503 0.000497
vt 0.166170 0.000497
vt 0.166170 0.166170
vt 0.000497 0.166170
vt 0.000497 0.000497
vt 0.167164 0.000497
vt 0.332836 0.000497
vt 0.332836 0.166170
vt 0.167164 0.166170
vt 0.832836 0.832836
vt 0.667164 0.832836
vt 0.667164 0.667164
vt 0.832836 0.667164
vt 0.332836 0.500497
vt 0.332836 0.666170
vt 0.167164 0.666170
vt 0.167164 0.500497
vt 0.500497 0.167164
vt 0.666170 0.167164
vt 0.666170 0.332836
vt 0.500497 0.332836
vt 0.499503 0.832836
vt 0.333830 0.832836
vt 0.333830 0.667164
vt 0.499503 0.667164
vt 0.166170 0.333830
vt 0.166170 0.499503
vt 0.000497 0.499503
vt 0.000497 0.333830

# vertex normals
vn 1.000000 -0.000000 0.000000
vn -0.000000 -1.000000 -0.000000
vn -0.000000 0.000000 1.000000
vn -1.000000 0.000000 -0.000000
vn 0.000000 -0.000000 -1.000000
vn 0.000000 1.000000 0.000000
vn 0.000000 -0.000000 1.000000
vn 0.000000 -1.000000 -0.000000
vn -1.000000 0.000000 0.000000
vn 0.000000 0.000000 -1.000000
vn 1.000000 0.000000 0.000000
vn 0.000000 1.000000 0.000000
vn 0.000000 1.000000 -0.000000
vn 0.000000 0.000000 1.000000
vn 0.000000 -1.000000 0.000000
vn 0.000000 -0.000000 -1.000000

# Mesh
g Back Wall
usemtl Wall.001
f 4/4/1 1/1/1 2/2/1
f 2/2/1 3/3/1 4/4/1
f 6/8/2 5/5/2 4/6/2
f 4/6/2 3/7/2 6/8/2
f 7/12/3 6/9/3 3/10/3
f 3/10/3 2/11/3 7/12/3
f 6/16/4 7/13/4 8/14/4
f 8/14/4 5/15/4 6/16/4
f 5/20/5 8/17/5 1/18/5
f 1/18/5 4/19/5 5/20/5
f 8/24/6 7/21/6 2/22/6
f 2/22/6 1/23/6 8/24/6

# Mesh
g Wall Left
usemtl Wall.002
f 12/28/7 9/25/7 10/26/7
f 10/26/7 11/27/7 12/28/7
f 14/32/8 13/29/8 12/30/8
f 12/30/8 11/31/8 14/32/8
f 15/36/9 14/33/9 11/34/9
f 11/34/9 10/35/9 15/36/9
f 14/40/10 15/37/10 16/38/10
f 16/38/10 13/39/10 14/40/10
f 13/44/11 16/41/11 9/42/11
f 9/42/11 12/43/11 13/44/11
f 16/48/12 15/45/12 10/46/12
f 10/46/12 9/47/12 16/48/12

# Mesh
g Wall Right
usemtl Wall.003
f 20/52/7 17/49/7 18/50/7
f 18/50/7 19/51/7 20/52/7
f 22/56/8 21/53/8 20/54/8
f 20/54/8 19/55/8 22/56/8
f 23/60/9 22/57/9 19/58/9
f 19/58/9 18/59/9 23/60/9
f 22/64/10 23/61/10 24/62/10
f 24/62/10 21/63/10 22/64/10
f 21/68/11 24/65/11 17/66/11
f 17/66/11 20/67/11 21/68/11
f 24/72/12 23/69/12 18/70/12
f 18/70/12 17/71/12 24/72/12

# Mesh
g Ceiling
usemtl Ceiling
f 28/76/13 25/73/13 26/74/13
f 26/74/13 27/75/13 28/76/13
f 30/80/14 29/77/14 28/78/14
f 28/78/14 27/79/14 30/80/14
f 31/84/9 30/81/9 27/82/9
f 27/82/9 26/83/9 31/84/9
f 30/88/15 31/85/15 32/86/15
f 32/86/15 29/87/15 30/88/15
f 29/92/11 32/89/11 25/90/11
f 25/90/11 28/91/11 29/92/11
f 32/96/16 31/93/16 26/94/16
f 26/94/16 25/95/16 32/96/16

# Mesh
g Floor
usemtl Floor
f 36/100/13 33/97/13 34/98/13
f 34/98/13 35/99/13 36/100/13
f 38/104/14 37/101/14 36/102/14
f 36/102/14 35/103/14 38/104/14
f 39/108/9 38/105/9 35/106/9
f 35/106/9 34/107/9 39/108/9
f 38/112/15 39/109/15 40/110/15
f 40/110/15 37/111/15 38/112/15
f 37/116/11 40/113/11 33/114/11
f 33/114/11 36/115/11 37/116/11
f 40/120/16 39/117/16 34/118/16
f 34/118/16 33/119/16 40/120/16
